<svg width="150" height="224" viewBox="0 0 150 224" fill="none" xmlns="http://www.w3.org/2000/svg">
<path d="M0.274963 175V195.775H16.15V192.388H4.43746V175H0.274963Z" fill="white"/>
<path d="M24.15 175H19.9875V195.888H24.15V175Z" fill="white"/>
<path d="M43.625 184.938V184.712C44.5534 184.496 45.3855 183.981 45.9947 183.248C46.6039 182.515 46.957 181.602 47 180.65C47 177.375 44.6376 175 39.1125 175H29.875V195.887H40.2375C45.6375 195.887 48.45 193.062 48.45 189.912C48.475 185.725 43.625 184.938 43.625 184.938ZM33.9375 178.5H38.9375C41.3125 178.5 42.55 179.637 42.55 181C42.55 182.363 41.3 183.5 38.9375 183.6H33.9375V178.5ZM40.1875 192.5H33.9375V186.975H40.1875C42.775 186.975 44.0125 188.225 44.0125 189.788C44.0125 191.35 42.85 192.5 40.15 192.5H40.1875Z" fill="white"/>
<path d="M69.5375 178.388V175H52.6375V195.775H69.5375V192.388H56.8125V187.188H65.375V183.8H56.8125V178.388H69.5375Z" fill="white"/>
<path d="M91.725 181.888C91.725 177.938 88.8 175 83.1625 175H73.8126V195.887H77.9875V188.775H83.7251L88.5751 195.887H93.4126L87.9 187.988V187.875C89.0568 187.365 90.037 186.525 90.7175 185.459C91.3981 184.394 91.7486 183.151 91.725 181.888ZM83.1625 185.275H77.8751V178.388H83.1625C85.975 178.388 87.45 179.975 87.45 181.888C87.45 183.475 85.975 185.275 83.1625 185.275Z" fill="white"/>
<path d="M103.55 175.112L94.9876 195.887H99.5L101.075 191.712H111.325L112.9 195.887H117.375L108.7 175.112H103.55ZM102.538 188.1L106.125 179.575H106.238L109.837 188.15L102.538 188.1Z" fill="white"/>
<path d="M40.9375 215.612C42.0933 215.105 43.0731 214.267 43.7537 213.204C44.4343 212.14 44.7853 210.9 44.7625 209.637C44.7625 205.675 41.8375 202.75 36.2 202.75H26.6251V223.638H30.8V216.525H36.7625L41.6125 223.638H46.45L40.9375 215.725V215.612ZM36.125 213.025H30.8376V206.138H36.2376C39.0501 206.138 40.525 207.6 40.4125 209.637C40.375 211.212 38.9 213.025 36.125 213.025Z" fill="white"/>
<path d="M57.2625 202.75L48.7 223.525H53.2125L54.7875 219.337H65.0375L66.6125 223.525H71.125L62.45 202.75H57.2625ZM56.25 215.825L59.85 207.25H59.9625L63.625 215.825H56.25Z" fill="white"/>
<path d="M85.8625 202.75H73.625V223.525H85.9C92.55 223.525 97.05 219.225 97.05 213.138C97.0125 207.263 92.5125 202.75 85.8625 202.75ZM85.8625 220.138H77.7625V206.138H85.8625C87.719 206.138 89.4995 206.875 90.8123 208.188C92.1251 209.501 92.8625 211.281 92.8625 213.138C92.8625 214.994 92.1251 216.774 90.8123 218.087C89.4995 219.4 87.719 220.138 85.8625 220.138Z" fill="white"/>
<path d="M100.513 223.4H117.4V220.012H104.675V214.825H113.238V211.438H104.675V206.125H117.4V202.738H100.513V223.4Z" fill="white"/>
<path d="M125.625 220.513C125.345 220.539 125.079 220.647 124.859 220.822C124.639 220.997 124.475 221.232 124.386 221.499C124.298 221.766 124.289 222.053 124.36 222.325C124.432 222.597 124.581 222.842 124.789 223.031C124.998 223.22 125.257 223.344 125.534 223.388C125.812 223.432 126.096 223.395 126.353 223.28C126.61 223.166 126.828 222.979 126.981 222.743C127.133 222.507 127.214 222.231 127.213 221.95C127.178 221.554 126.995 221.186 126.701 220.92C126.406 220.653 126.022 220.508 125.625 220.513Z" fill="white"/>
<path d="M135.75 209.575L129.988 223.438H132.863L134.013 220.688H140.788L141.938 223.438H144.963L139.2 209.575H135.75ZM135.025 218.387L137.525 212.612H137.663L139.975 218.387H135.025Z" fill="white"/>
<path d="M150 209.575H147.262V223.438H150V209.575Z" fill="white"/>
<path d="M0.274963 206.125H10.1875V223.512H14.35V206.125H24.15V202.738H0.274963V206.125Z" fill="white"/>
<path d="M25 125V25H0V150H75V125H25Z" fill="white"/>
<path d="M150 125H125V150H150V125Z" fill="white"/>
<path d="M25 0V25H75V125H100V25H150V0H25Z" fill="white"/>
</svg>
